<svg xmlns="http://www.w3.org/2000/svg" width="151" height="65" viewBox="0 0 151 65" fill="none"><path d="M36.1655 19.5805C43.174 20.0444 47.3124 18.7906 51.2261 12.5793" stroke="white" stroke-width="0.769282" stroke-miterlimit="22.93"></path><path d="M18.2852 56.6514C21.0248 58.1516 21.5828 58.485 24.6196 58.9996C27.3374 59.3837 31.4903 58.8764 33.9618 58.1371C37.5203 56.9485 39.8468 55.2526 42.5792 52.4332C44.7897 50.1502 46.4422 45.9539 46.6958 42.7794C46.9205 40.0326 46.3769 38.2859 45.5362 36.1261C44.9926 34.8215 43.3112 32.3718 43.1952 30.3063C43.101 28.5523 46.1088 25.7258 47.3626 24.2183" stroke="white" stroke-width="0.769282" stroke-miterlimit="22.93" stroke-linecap="round"></path><path fill-rule="evenodd" clip-rule="evenodd" d="M24.0473 50.541C23.598 48.6711 24.6996 45.5692 24.9823 44.5762C26.2868 40.0392 29.0989 37.075 30.976 35.6327C32.5125 34.4513 34.02 33.4656 36.506 33.3497C37.999 33.096 42.8839 34.2919 42.7389 35.5964C42.2678 36.6039 42.2533 37.2417 41.3039 37.3141C39.4702 37.4518 34.9115 38.7347 34.4621 41.1554C33.8316 42.9528 34.0708 44.3153 32.8967 45.9098C31.882 47.2796 28.5481 48.432 27.1565 49.3089C25.765 50.1859 24.8735 52.4472 24.0473 50.541Z" fill="white"></path><path fill-rule="evenodd" clip-rule="evenodd" d="M25.4093 53.1217C25.1339 51.5273 28.3301 50.9185 29.8159 50.2734C31.7655 49.4327 32.8164 48.505 34.3456 47.1207C35.2371 46.3162 35.7734 43.5404 36.0705 42.2721C36.4619 40.5979 38.9044 39.5397 40.5423 39.0541C41.6077 38.7352 43.5283 38.0467 43.7168 39.1483C44.1227 41.569 43.1297 44.9827 42.0861 47.2077C40.9844 49.5632 39.5639 52.1941 37.2881 53.6798C33.128 56.2672 26.0326 56.7528 25.4093 53.1217Z" fill="white"></path><path d="M20.3071 60.7308C21.1696 59.9263 22.148 59.1653 22.7641 58.6435" stroke="white" stroke-width="0.769282" stroke-miterlimit="22.93" stroke-linecap="round"></path><path d="M22.685 19.5799C25.6275 20.2539 27.6786 20.638 30.3167 21.486C30.7081 21.6165 29.0701 22.8776 29.4977 23.0298C30.8168 23.4936 35.0494 23.0443 35.7089 24.2763C36.1365 25.0736 35.8032 25.4505 35.2741 26.197C32.6359 29.9367 30.324 32.8285 27.5699 36.5828C23.3373 42.3447 19.6917 49.5995 15.5751 55.4484L14.6836 56.8471" stroke="white" stroke-width="0.769282" stroke-miterlimit="22.93" stroke-linecap="round"></path><path d="M34.0195 17.5079C36.6722 18.3631 37.194 23.1175 35.7735 24.9874" stroke="white" stroke-width="0.769282" stroke-miterlimit="22.93"></path><path fill-rule="evenodd" clip-rule="evenodd" d="M66.4458 23.8568C66.8227 24.7772 66.2356 25.8498 66.598 26.9877C66.9676 28.1328 65.2427 28.6982 64.5542 28.43C63.8149 28.1473 63.5757 27.2269 64.0468 26.0383C64.5179 24.8497 65.7355 24.0524 66.4386 23.8568" fill="white"></path><path fill-rule="evenodd" clip-rule="evenodd" d="M56.9287 26.385C57.1461 27.3489 57.465 28.3346 58.5304 29.0376C59.5958 29.7407 61.1323 29.9653 61.5454 29.3565C62.821 28.4433 60.4511 27.5084 60.0017 26.9358C59.7263 26.5879 59.1827 25.6385 56.9287 26.385Z" fill="white"></path><path fill-rule="evenodd" clip-rule="evenodd" d="M64.9017 18.8192C64.88 20.2904 65.1047 21.7617 64.9742 22.3995C64.8582 22.9575 63.9885 24.6172 63.271 24.7405C62.8651 24.0592 62.3071 22.1023 62.7564 20.9355C63.1985 19.7686 64.1842 18.9496 64.909 18.8192" fill="white"></path><path fill-rule="evenodd" clip-rule="evenodd" d="M56.356 21.6745C56.7038 22.6022 56.6676 24.2257 57.82 24.7837C58.9723 25.3418 61.2481 26.2695 61.5742 25.61C61.9294 24.8997 60.5161 22.8631 59.0231 22.6892C57.5301 22.5152 57.0082 21.3411 56.356 21.6673" fill="white"></path><path fill-rule="evenodd" clip-rule="evenodd" d="M47.4131 8.03394C47.9059 8.78045 48.435 9.71539 49.0293 10.3242C49.6164 10.933 51.8849 10.9837 52.0588 10.3677C51.8704 9.73713 51.8341 8.36733 50.2179 8.1789C48.6017 7.99046 47.9277 7.64257 47.4131 8.04119" fill="white"></path><path fill-rule="evenodd" clip-rule="evenodd" d="M49.2028 2.16388C50 3.04084 50.3334 3.29451 50.5654 4.48312C50.7973 5.67173 51.6163 6.25154 50.3189 6.60667C49.4202 6.85309 48.8187 6.12108 48.6882 4.9977C48.5578 3.87432 48.681 2.13489 49.2028 2.17113" fill="white"></path><path fill-rule="evenodd" clip-rule="evenodd" d="M42.5571 6.63548C43.2093 7.1863 44.5574 7.87482 45.5576 7.57042C46.5577 7.26602 47.1738 7.1863 47.5217 6.65722C47.1231 6.09916 45.6083 6.12815 44.5357 5.59182C43.463 5.0555 42.9049 6.11365 42.5498 6.63548" fill="white"></path><path fill-rule="evenodd" clip-rule="evenodd" d="M44.6085 0.44574C45.3985 0.800873 45.2101 1.61261 46.3987 2.37361C47.5801 3.13461 47.1162 4.59862 46.5074 5.02623C46.2103 5.22917 44.71 4.2145 44.2969 3.17809C43.8765 2.14168 44.2969 0.996559 44.6158 0.44574" fill="white"></path><path fill-rule="evenodd" clip-rule="evenodd" d="M38.9326 1.96833C39.7444 2.74383 39.9328 3.744 40.5706 4.18611C41.7447 4.68619 43.0855 4.78766 43.7015 4.07014C43.7233 3.57731 42.7159 3.4541 41.8607 2.44668C41.3243 1.81614 40.0488 1.27981 38.9326 1.96109" fill="white"></path><path fill-rule="evenodd" clip-rule="evenodd" d="M53.5009 5.12805C54.53 7.49077 55.0953 6.8095 55.0953 7.64297C55.0881 9.00553 55.262 10.3028 54.5662 10.4695C53.8777 10.4261 52.5876 9.5491 52.7036 8.3315C52.7978 7.37481 52.7036 5.57016 53.5081 5.1353" fill="white"></path><path fill-rule="evenodd" clip-rule="evenodd" d="M47.6589 57.9555C43.1291 60.7458 35.5554 63.9275 26.0827 61.6518C22.1183 60.7024 18.2625 58.6368 12.7833 53.8534C11.0439 51.9037 10.6453 51.4181 8.04339 49.3163C6.55038 48.1132 3.82528 45.5983 2.77438 41.5252C1.9409 38.2855 2.62942 38.5826 1.59301 37.1621C1.04944 36.2054 1.23063 38.5971 1.45531 39.5321C5.94158 58.2889 25.0463 67.9862 42.3174 62.5505C56.0661 58.2237 64.8865 45.5113 64.5386 31.4002C64.4009 29.4216 63.0746 26.682 62.6687 26.2109C61.1467 27.0807 63.292 29.4216 62.5527 33.8644C62.1179 37.4665 61.6468 40.8656 59.3638 45.091C58.5738 46.555 58.1897 47.7581 55.1819 51.4689C53.9208 53.0271 49.4853 56.8249 47.6516 57.9555H47.6589Z" fill="white"></path><path d="M47.6589 57.9555C43.1291 60.7458 35.5554 63.9275 26.0827 61.6518C22.1183 60.7024 18.2625 58.6368 12.7833 53.8534C11.0439 51.9037 10.6453 51.4182 8.04339 49.3163C6.55038 48.1132 3.82528 45.5983 2.77438 41.5252C1.9409 38.2855 2.62942 38.5826 1.59301 37.1621C1.04944 36.2054 1.23063 38.5971 1.45531 39.5321C5.94158 58.2889 25.0463 67.9862 42.3174 62.5505C56.0661 58.2237 64.8865 45.5113 64.5386 31.4002C64.4009 29.4216 63.0746 26.682 62.6687 26.2109C61.1467 27.0807 63.292 29.4216 62.5527 33.8644C62.1179 37.4665 61.6468 40.8656 59.3638 45.091C58.5738 46.555 58.1897 47.7581 55.1819 51.4689C53.9208 53.0271 49.4853 56.8249 47.6516 57.9555H47.6589Z" stroke="white" stroke-width="0.112828" stroke-miterlimit="22.93"></path><path fill-rule="evenodd" clip-rule="evenodd" d="M60.9445 13.6293C61.7997 13.7236 62.4883 14.2381 63.1623 16.4124C63.5682 17.7242 63.1623 17.8619 62.8144 18.4345C62.6115 18.7606 62.452 19.2245 61.9882 19.6956C61.4301 20.2609 60.4734 18.565 60.3357 17.2894C60.2632 16.6226 60.8068 16.079 60.9518 15.4412C61.0822 14.8614 60.7996 14.1729 60.9518 13.6293" fill="white"></path><path fill-rule="evenodd" clip-rule="evenodd" d="M55.6606 17.7468C56.0085 18.6745 56.023 19.9645 56.7116 20.5298C57.4001 21.0952 59.6323 21.6387 60.1397 21.1169C60.56 20.682 59.0598 18.6382 57.8494 18.4933C56.9072 18.3773 56.4796 17.3119 55.6606 17.7468Z" fill="white"></path><path fill-rule="evenodd" clip-rule="evenodd" d="M33.8889 57.7454C35.1138 57.2816 36.3894 56.5713 37.6722 56.4698C36.9329 57.7527 39.8537 58.8688 41.1945 59.6878C42.1367 60.2531 42.5498 61.3982 41.7961 61.7461C41.5932 61.8403 40.3176 62.4201 39.9842 62.0215C39.5493 61.4997 38.4332 60.6155 37.6722 60.9634C37.3098 61.1228 36.8677 61.4707 36.6575 61.7968C36.2009 62.4999 38.3825 63.0942 38.3027 63.4783C37.7664 64.2755 35.179 65.6308 34.1498 64.6742C33.3816 63.9639 33.3744 60.9996 33.3091 60.6082C33.1787 59.7603 33.0772 58.0571 33.8889 57.7527" fill="white"></path><path fill-rule="evenodd" clip-rule="evenodd" d="M4.39933 38.728C4.7907 39.9456 4.76171 40.5616 4.70373 41.6343C4.58777 42.9968 6.18224 45.606 5.10959 44.6638C4.03695 43.7216 3.79053 42.2286 3.79053 41.1342C3.79053 40.0398 4.00796 37.5104 4.39933 38.728Z" fill="white"></path><path d="M4.39933 38.728C4.7907 39.9456 4.76171 40.5616 4.70373 41.6343C4.58777 42.9968 6.18224 45.606 5.10959 44.6638C4.03695 43.7216 3.79053 42.2286 3.79053 41.1342C3.79053 40.0398 4.00796 37.5104 4.39933 38.728Z" stroke="white" stroke-width="0.292327" stroke-miterlimit="22.93"></path><path fill-rule="evenodd" clip-rule="evenodd" d="M3.62981 33.923C3.76751 35.6914 4.26035 34.9739 4.12265 35.8943C4.00669 36.6916 3.82549 36.7206 3.29642 37.554C2.76734 38.3875 2.48469 36.1915 2.4267 35.1841C2.36872 34.1839 3.38339 30.821 3.62981 33.923Z" fill="white"></path><path d="M3.62981 33.923C3.76751 35.6914 4.26035 34.9739 4.12265 35.8943C4.00669 36.6916 3.82549 36.7206 3.29642 37.554C2.76734 38.3875 2.48469 36.1915 2.4267 35.1841C2.36872 34.1839 3.38339 30.821 3.62981 33.923Z" stroke="white" stroke-width="0.292327" stroke-miterlimit="22.93"></path><path fill-rule="evenodd" clip-rule="evenodd" d="M2.68089 25.5656C2.79686 26.8412 2.18806 30.0953 1.89815 31.1245C1.48504 32.4291 1.94164 36.35 1.38357 35.2846C0.825503 34.2192 0.876236 31.5086 1.11541 30.436C1.35458 29.3633 2.56493 24.29 2.68089 25.5656Z" fill="white"></path><path d="M2.68089 25.5656C2.79686 26.8412 2.18806 30.0953 1.89815 31.1245C1.48504 32.4291 1.94164 36.35 1.38357 35.2846C0.825503 34.2192 0.876236 31.5086 1.11541 30.436C1.35458 29.3633 2.56493 24.29 2.68089 25.5656Z" stroke="white" stroke-width="0.292327" stroke-miterlimit="22.93"></path><path fill-rule="evenodd" clip-rule="evenodd" d="M28.0042 58.7245C29.7726 59.0289 33.4979 58.094 31.9977 58.971C31.2584 60.2538 33.121 59.587 34.4691 60.3987C35.4113 60.9641 34.9909 62.0222 34.2444 62.3773C33.6356 62.66 32.7804 61.6163 31.628 62.1382C31.2656 62.3049 31.0047 62.2396 30.7873 62.5658C30.3307 63.2688 32.6644 63.6167 32.5775 64.0081C32.0411 64.8053 30.0698 65.2039 29.0406 64.2472C28.2724 63.537 27.4969 61.7685 27.4389 61.3772C27.3084 60.5292 27.149 58.5796 27.997 58.7245" fill="white"></path><path d="M95.7411 6.9111L79.7818 32.0169L80.9342 34.6043L79.5571 39.3732L83.0867 38.6339L84.8117 38.7789C85.319 38.7064 84.9928 38.547 85.8191 38.489L91.1243 27.8712C91.494 26.9725 98.2777 15.1299 99.3286 13.3035C99.6548 12.7382 100.38 11.738 101.032 10.8828C101.684 10.0276 101.496 8.79548 100.604 8.17944L98.082 6.43276C97.3065 5.89644 96.2484 6.11387 95.7411 6.90386V6.9111Z" stroke="white" stroke-width="0.769282" stroke-miterlimit="22.93" stroke-linecap="round"></path><path d="M134.501 33.393H137.045C138.697 33.393 139.502 33.1466 139.458 32.661C139.407 32.1102 138.878 31.8348 137.864 31.8348C136.443 31.8348 135.327 32.3566 134.501 33.393ZM133.392 36.2848C133.392 37.0893 134.262 37.4879 136.008 37.4879H142.886C144.836 37.4879 145.814 37.959 145.814 38.894C145.814 39.5318 145.466 40.0391 144.778 40.3942C144.089 40.7494 143.125 40.9306 141.893 40.9306H135.341C132.892 40.9306 131.029 40.5174 129.753 39.6985C128.478 38.8722 127.84 37.6691 127.84 36.0819C127.84 34.0453 128.848 32.2841 130.862 30.8056C132.877 29.3271 135.283 28.5879 138.059 28.5879C140.081 28.5879 141.712 28.9502 142.937 29.6678C144.162 30.3925 144.778 31.3492 144.778 32.5306C144.778 33.9511 143.93 35.0092 142.234 35.6978C141.299 36.0891 139.893 36.2848 138.038 36.2848H133.406H133.392ZM124.68 28.7763H127.876C129.848 28.7763 130.826 29.2474 130.826 30.1823C130.826 30.8201 130.478 31.3275 129.79 31.6826C129.101 32.0377 128.137 32.2189 126.905 32.2189H122.644L112.229 49.7944C111.366 51.2439 110.156 51.9687 108.612 51.9687C107.931 51.9687 107.366 51.831 106.895 51.5411C106.431 51.2512 106.155 50.6931 106.155 50.2655C106.155 49.9611 107.351 48.0332 108.119 46.7431L116.751 32.2117H115.171C113.2 32.2117 112.222 31.7551 112.222 30.8346C112.222 30.1823 112.569 29.675 113.258 29.3126C113.946 28.9502 114.91 28.769 116.15 28.769H118.781L121.73 23.8044C122.716 22.152 123.897 20.9851 125.282 20.2893C126.666 19.5936 128.514 19.2529 130.833 19.2529H133.472C135.436 19.2529 136.414 19.7168 136.414 20.6517C136.414 21.3185 136.066 21.8403 135.378 22.2027C134.689 22.5796 133.725 22.7608 132.5 22.7608H131.805C130.507 22.7608 129.485 22.942 128.739 23.3043C127.985 23.6595 127.362 24.2683 126.847 25.1235L124.673 28.7763H124.68ZM108.525 23.7102C109.424 23.7102 110.185 23.9276 110.808 24.3553C111.432 24.7829 111.75 25.3047 111.75 25.9207C111.75 26.5368 111.432 27.0586 110.808 27.4862C110.185 27.9138 109.424 28.1313 108.525 28.1313C107.627 28.1313 106.866 27.9138 106.242 27.4862C105.619 27.0586 105.3 26.5295 105.3 25.9207C105.3 25.3119 105.619 24.7829 106.242 24.3553C106.866 23.9276 107.634 23.7102 108.525 23.7102ZM105.474 37.4879H108.09C110.025 37.4879 110.989 37.959 110.989 38.894C110.989 39.5318 110.649 40.0391 109.96 40.3942C109.279 40.7494 108.322 40.9306 107.09 40.9306H103.408C102.046 40.9306 100.98 40.7421 100.205 40.358C99.4222 39.9811 99.0381 39.4593 99.0381 38.807C99.0381 38.4519 99.2048 38.0098 99.5309 37.4734L103.358 31.0231L103.611 30.5737C104.322 29.3779 105.459 28.7835 107.047 28.7835C107.692 28.7835 108.257 28.9285 108.728 29.2257C109.192 29.5228 109.431 29.8779 109.431 30.2911C109.431 30.6317 109.228 31.1535 108.808 31.8493L105.481 37.4879H105.474Z" fill="white"></path><path fill-rule="evenodd" clip-rule="evenodd" d="M78.5267 34.5965L90.4201 35.6329C91.8841 35.7633 94.5584 35.3575 95.6818 36.1982C98.1315 38.0318 100.668 37.6405 100.284 38.3797C98.965 40.9091 90.4056 40.641 85.97 40.3656C81.4113 40.0901 76.1205 42.2427 76.9322 39.6553C77.4613 37.9666 76.5771 34.4298 78.5195 34.5965H78.5267Z" fill="white"></path><path d="M78.5267 34.5965L90.4201 35.6329C91.8841 35.7633 94.5584 35.3575 95.6818 36.1982C98.1315 38.0318 100.668 37.6405 100.284 38.3797C98.965 40.9091 90.4056 40.641 85.97 40.3656C81.4113 40.0901 76.1205 42.2427 76.9322 39.6553C77.4613 37.9666 76.5771 34.4298 78.5195 34.5965H78.5267Z" stroke="white" stroke-width="0.292327" stroke-miterlimit="22.93"></path><path fill-rule="evenodd" clip-rule="evenodd" d="M97.1096 6.20915L99.4869 8.32545C100.415 9.15168 93.7395 19.7622 93.1452 20.8566L85.9411 34.0762C85.3467 35.1706 82.4187 36.8231 81.8244 35.7287L80.114 32.547C79.5269 31.4526 85.8758 22.1901 86.5354 21.132L90.4636 14.8266C91.1231 13.7684 96.1819 5.38292 97.1096 6.20915Z" fill="white"></path><path d="M97.1096 6.20915L99.4869 8.32545C100.415 9.15168 93.7395 19.7622 93.1452 20.8566L85.9411 34.0762C85.3467 35.1706 82.4187 36.8231 81.8244 35.7287L80.114 32.547C79.5269 31.4526 85.8758 22.1901 86.5354 21.132L90.4636 14.8266C91.1231 13.7684 96.1819 5.38292 97.1096 6.20915Z" stroke="white" stroke-width="0.292327" stroke-miterlimit="22.93"></path><path d="M140.537 51.3758H142.878C144.4 51.3758 145.139 51.1366 145.096 50.6583C145.052 50.1147 144.567 49.8393 143.625 49.8393C142.313 49.8393 141.291 50.3539 140.53 51.3758M139.508 54.2241C139.508 55.0141 140.305 55.4055 141.914 55.4055H148.249C150.046 55.4055 150.945 55.8693 150.945 56.7898C150.945 57.4203 150.626 57.9131 149.988 58.2683C149.358 58.6234 148.466 58.7974 147.328 58.7974H141.298C139.044 58.7974 137.334 58.3915 136.152 57.5798C134.978 56.768 134.391 55.5794 134.391 54.0139C134.391 52.0063 135.319 50.2742 137.174 48.8174C139.03 47.3606 141.24 46.6286 143.799 46.6286C145.661 46.6286 147.162 46.9837 148.292 47.694C149.423 48.4115 149.988 49.3465 149.988 50.5133C149.988 51.9194 149.213 52.9558 147.647 53.6371C146.792 54.0212 145.495 54.2169 143.784 54.2169H139.523L139.508 54.2241ZM128.354 55.4055H130.883C132.681 55.4055 133.579 55.8693 133.579 56.7898C133.579 57.4203 133.268 57.9131 132.63 58.2683C132 58.6234 131.115 58.7974 129.985 58.7974H125.665C124.73 58.7974 123.976 58.6162 123.397 58.2538C122.824 57.8842 122.527 57.4131 122.527 56.8115C122.527 56.4056 122.715 55.8548 123.092 55.1591L125.064 51.586C125.172 51.3758 125.23 51.1874 125.23 51.0134C125.23 50.3394 124.766 49.9987 123.824 49.9987C123.107 49.9987 122.382 50.2379 121.679 50.7163C120.976 51.1946 120.403 51.8251 119.976 52.6224L117.598 56.9347C116.823 58.3263 115.685 59.0293 114.192 59.0293C113.612 59.0293 113.112 58.8916 112.706 58.6089C112.293 58.3263 112.09 57.9929 112.09 57.6087C112.09 57.3043 112.199 56.9492 112.409 56.5506L112.641 56.123L115.04 51.7672C115.25 51.383 115.359 51.0786 115.359 50.8612C115.359 50.6293 115.214 50.4264 114.931 50.2597C114.649 50.0857 114.315 50.006 113.931 50.006C112.395 50.006 111.17 50.8177 110.278 52.4412L107.785 56.9202C107.01 58.3263 105.872 59.0293 104.393 59.0293C103.814 59.0293 103.306 58.8916 102.886 58.6162C102.473 58.3408 102.263 58.0001 102.263 57.6087C102.263 57.2971 102.371 56.942 102.581 56.5433L102.813 56.123L107.068 48.455C107.662 47.3824 108.553 46.8388 109.749 46.8388C110.945 46.8388 111.75 47.2664 112.054 48.1216C113.018 47.5273 113.801 47.1287 114.402 46.9403C115.004 46.7446 115.75 46.6431 116.627 46.6431C118.533 46.6431 119.961 47.2447 120.911 48.455C122.505 47.2519 124.295 46.6431 126.281 46.6431C127.644 46.6431 128.774 46.933 129.695 47.5128C130.615 48.0926 131.072 48.7956 131.072 49.6436C131.072 50.1727 130.92 50.7235 130.608 51.2816L128.339 55.4127L128.354 55.4055ZM99.6027 41.8307C100.429 41.8307 101.132 42.0409 101.704 42.4685C102.277 42.8888 102.567 43.4034 102.567 44.0122C102.567 44.621 102.277 45.1356 101.704 45.556C101.132 45.9763 100.429 46.1937 99.6027 46.1937C98.7764 46.1937 98.0734 45.9836 97.5008 45.556C96.9283 45.1356 96.6311 44.6138 96.6311 44.0122C96.6311 43.4107 96.921 42.8888 97.5008 42.4685C98.0734 42.0481 98.7837 41.8307 99.6027 41.8307ZM96.7906 55.4055H99.1968C100.98 55.4055 101.871 55.8693 101.871 56.7898C101.871 57.4203 101.56 57.9131 100.922 58.2683C100.298 58.6234 99.4142 58.7974 98.2763 58.7974H94.8845C93.6306 58.7974 92.6522 58.6089 91.9347 58.232C91.2172 57.8552 90.8548 57.3478 90.8548 56.7028C90.8548 56.3549 91.007 55.9201 91.3041 55.391L94.8265 49.0348L95.0584 48.5927C95.7107 47.4113 96.7616 46.8243 98.2184 46.8243C98.8127 46.8243 99.3345 46.9692 99.7694 47.2591C100.197 47.5563 100.414 47.9042 100.414 48.3101C100.414 48.6434 100.226 49.158 99.8418 49.8465L96.7761 55.3982L96.7906 55.4055ZM91.3839 39.9535L84.2884 55.188C82.7302 58.5364 82.3171 59.254 81.6503 59.8555C80.4834 60.8992 79.9326 61.0151 78.9252 61.0731C76.432 61.2181 72.6125 61.2615 70.3513 60.689C66.568 59.7323 67.3145 54.9416 69.7135 55.1735C71.163 55.3113 71.0325 55.4635 72.3371 55.8331C74.091 56.3404 75.9102 57.2899 77.193 56.21C78.4759 55.1301 78.5628 54.8764 79.4615 52.9485L85.6872 39.6129L78.3381 40.4826C78.0917 40.5116 78.0482 40.729 78.0482 39.7071C78.0482 39.0186 77.3307 37.9532 78.0265 37.5618C78.7223 37.1705 78.2802 37.4459 79.5123 37.4459H94.0727L95.5657 37.6995C96.1528 37.9387 96.4499 38.3663 96.4499 38.9824C96.4499 39.6709 97.5371 39.0331 96.8413 39.4245C96.1528 39.8158 94.4424 39.7434 93.2103 39.8303L91.3766 39.9608L91.3839 39.9535Z" fill="white"></path><path d="M92.9789 39.8514C91.5584 43.0549 90.6524 44.5841 88.8912 48.4544C87.1301 52.3318 86.3908 54.122 84.7746 57.4849C84.1151 58.8547 83.6222 60.3332 78.0923 60.3839" stroke="white" stroke-width="0.769282" stroke-miterlimit="22.93" stroke-linecap="round"></path><path d="M104.865 58.4485C105.749 58.579 107.402 58.5355 108.264 58.0934C109.902 57.2454 110.866 55.0494 112.345 52.5055C115.048 47.8525 117.628 43.272 119.81 39.612C122.448 35.1909 125.535 28.7768 128.898 24.7978C130.536 22.8555 133.885 25.3849 134.936 22.8627L135.595 21.29" stroke="white" stroke-width="0.769282" stroke-miterlimit="22.93" stroke-linecap="round"></path><path d="M35.5052 16.369C34.2949 17.3619 33.0628 18.2896 31.6785 18.7028C28.7504 19.5725 25.5977 19.2826 22.5537 19.5797M54.9868 11.9335C54.2838 12.7887 53.3996 14.1223 52.6748 14.9557C51.1601 16.6879 49.4206 18.0142 48.5872 20.1595L46.7608 24.8487C48.2465 23.4137 48.5219 22.9499 49.8627 21.7178C54.0664 17.8475 58.6106 14.0498 63.0099 10.4042C63.539 9.96213 65.061 8.3894 64.9305 7.70812C64.6406 6.18612 59.3426 9.88966 56.1392 11.4551C52.8343 13.0714 49.7685 12.4915 46.1664 12.535C44.0139 12.5568 41.8831 12.506 40.0205 13.2381C38.397 13.8758 36.9692 15.1732 35.5124 16.3763" stroke="white" stroke-width="0.769282" stroke-miterlimit="22.93" stroke-linecap="round"></path><path fill-rule="evenodd" clip-rule="evenodd" d="M55.5522 14.9643C61.2488 11.6087 65.7786 6.56432 64.4958 8.31824C63.945 9.06475 61.5315 11.4057 58.3063 14.3048C56.4509 15.979 54.5158 17.2618 52.8489 18.9577C48.7974 23.0599 49.3773 22.7338 47.6668 22.4294C45.9491 22.125 52.2618 16.9067 55.5522 14.9643Z" fill="white"></path><path fill-rule="evenodd" clip-rule="evenodd" d="M40.6287 13.2086C44.2526 12.2374 50.0434 12.0272 50.4275 13.4767C50.6522 14.303 49.8187 14.9915 48.3765 16.2018C47.2893 17.115 45.8398 18.6153 44.2815 19.0357C41.8463 19.6879 38.8023 20.275 37.2296 19.6155C36.4614 19.2966 35.7439 19.1081 35.6134 18.637C35.5699 18.4631 35.2365 17.847 35.2438 17.6441C35.3162 16.0786 37.4253 14.071 40.6215 13.2158L40.6287 13.2086Z" fill="white"></path><path d="M40.6287 13.2086C44.2526 12.2374 50.0434 12.0272 50.4275 13.4767C50.6522 14.303 49.8187 14.9915 48.3765 16.2018C47.2893 17.115 45.8398 18.6153 44.2815 19.0357C41.8463 19.6879 38.8023 20.275 37.2296 19.6155C36.4614 19.2966 35.7439 19.1081 35.6134 18.637C35.5699 18.4631 35.2365 17.847 35.2438 17.6441C35.3162 16.0786 37.4253 14.071 40.6215 13.2158L40.6287 13.2086Z" stroke="white" stroke-width="0.292327" stroke-miterlimit="22.93"></path><path fill-rule="evenodd" clip-rule="evenodd" d="M44.1015 15.3821C44.877 15.3821 46.1163 15.6213 46.1163 16.3968C45.9931 17.2013 45.3553 17.9333 44.5508 18.1942C43.8768 18.3754 42.2461 18.2594 42.2461 17.4767C42.2461 16.6939 43.326 15.3749 44.1015 15.3749V15.3821Z" fill="white"></path><path d="M44.1015 15.3821C44.877 15.3821 46.1163 15.6213 46.1163 16.3968C45.9931 17.2013 45.3553 17.9333 44.5508 18.1942C43.8768 18.3754 42.2461 18.2594 42.2461 17.4767C42.2461 16.6939 43.326 15.3749 44.1015 15.3749V15.3821Z" stroke="white" stroke-width="0.292327" stroke-miterlimit="22.93"></path><path d="M14.241 12.0491C13.9076 12.3608 13.5597 12.5637 13.1828 12.6507C12.806 12.7377 12.4363 12.7087 12.0667 12.571C11.6971 12.4333 11.3492 12.2013 11.0303 11.8607C10.7114 11.5273 10.4867 11.1649 10.3708 10.7881C10.2548 10.4112 10.2403 10.0343 10.3418 9.66468C10.4432 9.29505 10.6534 8.94717 10.9868 8.63552C11.3854 8.2514 11.8058 8.04122 12.2552 7.99773C12.6973 7.95425 13.1249 8.0847 13.5307 8.38185L12.835 9.04139C12.6248 8.90368 12.4074 8.8457 12.1827 8.87469C11.958 8.90368 11.7406 9.0124 11.5304 9.21533C11.3347 9.40377 11.2115 9.6067 11.1608 9.83138C11.11 10.0561 11.1245 10.288 11.2115 10.5344C11.2985 10.7736 11.4507 11.0127 11.6753 11.2519C11.9 11.4838 12.1247 11.6505 12.3639 11.7447C12.603 11.8462 12.835 11.868 13.0596 11.8317C13.2843 11.7955 13.4945 11.6723 13.6902 11.4911C13.9004 11.2881 14.0236 11.078 14.0671 10.8678C14.1105 10.6504 14.0671 10.4402 13.9511 10.2372L14.6469 9.57046C14.9078 9.97633 15.0092 10.3967 14.944 10.8315C14.8788 11.2737 14.6396 11.6795 14.241 12.0636V12.0491Z" fill="white"></path><path d="M18.0246 9.04771C17.655 9.29413 17.2708 9.42459 16.8795 9.43908C16.4881 9.46082 16.1112 9.37385 15.7561 9.17817C15.4009 8.98248 15.0965 8.69982 14.8429 8.30845C14.5892 7.91708 14.4443 7.52571 14.408 7.12709C14.3718 6.72847 14.4443 6.3516 14.6182 5.99646C14.7921 5.64133 15.0676 5.34418 15.4372 5.10501C15.8141 4.85859 16.1982 4.72813 16.5896 4.70639C16.9809 4.68464 17.3578 4.77161 17.7057 4.9673C18.0608 5.15574 18.3652 5.45289 18.6189 5.83701C18.8726 6.22839 19.0175 6.61976 19.0537 7.01838C19.09 7.417 19.0248 7.79387 18.8508 8.14901C18.6769 8.50414 18.4015 8.80129 18.0246 9.04771ZM17.5897 8.38818C17.8216 8.23598 17.9883 8.04754 18.0898 7.83011C18.1913 7.61268 18.2203 7.37351 18.184 7.1126C18.1478 6.85168 18.0463 6.59077 17.8651 6.32261C17.6839 6.0472 17.4883 5.84426 17.2636 5.71381C17.0389 5.58335 16.8142 5.51812 16.5751 5.52537C16.3359 5.52537 16.104 5.61234 15.872 5.76454C15.6401 5.91674 15.4807 6.09793 15.3792 6.31536C15.2777 6.53279 15.2415 6.77196 15.2777 7.02562C15.314 7.27929 15.4154 7.54745 15.5966 7.81561C15.7706 8.08378 15.9735 8.28671 16.1982 8.41717C16.4229 8.55487 16.6548 8.61285 16.894 8.61285C17.1331 8.61285 17.3723 8.53313 17.597 8.38093L17.5897 8.38818Z" fill="white"></path><path d="M20.5824 7.43906L18.7271 3.26443L21.4449 2.05408L21.7348 2.70636L19.8214 3.55433L20.3143 4.67047L21.8435 3.98919L22.1262 4.61973L20.5969 5.30101L21.3869 7.07668L20.5824 7.43181V7.43906Z" fill="white"></path><path d="M23.9455 6.01168L22.6699 1.62687L25.5255 0.793396L25.7212 1.47467L23.7136 2.06173L24.0542 3.23584L25.6632 2.76475L25.8589 3.43153L24.2499 3.90262L24.7935 5.77251L23.9455 6.01893V6.01168Z" fill="white"></path><path d="M27.4829 5.03991L26.8306 0.517392L29.8021 0.0897827L29.9036 0.792802L27.8017 1.0972L27.9757 2.27856L29.8818 2.00315L29.976 2.67718L28.0699 2.95259L28.2511 4.20643L30.3457 3.90203L30.4471 4.60505L27.4756 5.03266L27.4829 5.03991Z" fill="white"></path><path d="M31.2874 4.5627L31.2729 -0.0032959H34.2735V0.699723H32.1572V1.89558H34.085V2.57686H32.1644V3.84519H34.288V4.54821H31.2874V4.5627Z" fill="white"></path></svg>